<svg width="41" height="40" viewBox="0 0 41 40" fill="none" xmlns="http://www.w3.org/2000/svg">
<path fill-rule="evenodd" clip-rule="evenodd" d="M16.8716 0.85942C18.9783 -0.286473 21.5221 -0.286474 23.6287 0.85942L35.8415 7.50256C38.1171 8.74033 39.5336 11.1233 39.5336 13.7137V26.2863C39.5336 28.8767 38.1171 31.2597 35.8415 32.4974L23.6287 39.1406C21.5221 40.2865 18.9783 40.2865 16.8716 39.1406L4.65883 32.4974C2.3833 31.2597 0.966797 28.8767 0.966797 26.2863L0.966797 13.7137C0.966797 11.1233 2.3833 8.74033 4.65882 7.50256L16.8716 0.85942Z" fill="#23292F"/>
<g clip-path="url(#clip0_10_834)">
<path d="M20.25 36C29.0866 36 36.25 28.8366 36.25 20C36.25 11.1634 29.0866 4 20.25 4C11.4134 4 4.25 11.1634 4.25 20C4.25 28.8366 11.4134 36 20.25 36Z" fill="#23292F"/>
<path d="M27.32 12H30.21L24.195 17.957C23.1434 18.9931 21.7263 19.5739 20.25 19.5739C18.7737 19.5739 17.3566 18.9931 16.305 17.957L10.285 12H13.18L17.75 16.523C18.4155 17.1799 19.3129 17.5482 20.248 17.5482C21.1831 17.5482 22.0805 17.1799 22.746 16.523L27.32 12ZM13.145 28.563H10.25L16.305 22.57C17.3566 21.5339 18.7737 20.9531 20.25 20.9531C21.7263 20.9531 23.1434 21.5339 24.195 22.57L30.25 28.562H27.355L22.75 24C22.0845 23.3431 21.1871 22.9748 20.252 22.9748C19.3169 22.9748 18.4195 23.3431 17.754 24L13.144 28.563H13.145Z" fill="white"/>
</g>
<defs>
<clipPath id="clip0_10_834">
<rect width="32" height="32" fill="white" transform="translate(4.25 4)"/>
</clipPath>
</defs>
</svg>
