<svg width="41" height="40" viewBox="0 0 41 40" fill="none" xmlns="http://www.w3.org/2000/svg">
<path fill-rule="evenodd" clip-rule="evenodd" d="M17.1216 0.85942C19.2283 -0.286473 21.7721 -0.286474 23.8787 0.85942L36.0915 7.50256C38.3671 8.74033 39.7836 11.1233 39.7836 13.7137V26.2863C39.7836 28.8767 38.3671 31.2597 36.0915 32.4974L23.8787 39.1406C21.7721 40.2865 19.2283 40.2865 17.1216 39.1406L4.90883 32.4974C2.6333 31.2597 1.2168 28.8767 1.2168 26.2863L1.2168 13.7137C1.2168 11.1233 2.6333 8.74033 4.90882 7.50256L17.1216 0.85942Z" fill="#00ACED"/>
<g clip-path="url(#clip0_10_823)">
<path d="M20.5 36C29.3366 36 36.5 28.8366 36.5 20C36.5 11.1634 29.3366 4 20.5 4C11.6634 4 4.5 11.1634 4.5 20C4.5 28.8366 11.6634 36 20.5 36Z" fill="#00ACED"/>
<path fill-rule="evenodd" clip-rule="evenodd" d="M10.5 14V18.076L20.395 23.791L26.815 20.076V23.391L30.271 25.429V14L20.386 19.715L10.5 14Z" fill="white"/>
<path opacity="0.7" fill-rule="evenodd" clip-rule="evenodd" d="M20.386 8L10.5 13.714V25.143L20.386 30.857L30.243 25.143L26.748 23.105L20.386 26.781L13.996 23.105V15.752L20.386 12.076L26.748 15.752L30.243 13.714L20.386 8Z" fill="white"/>
</g>
<defs>
<clipPath id="clip0_10_823">
<rect width="32" height="32" fill="white" transform="translate(4.5 4)"/>
</clipPath>
</defs>
</svg>
