<svg width="41" height="40" viewBox="0 0 41 40" fill="none" xmlns="http://www.w3.org/2000/svg">
<path fill-rule="evenodd" clip-rule="evenodd" d="M17.3716 0.85942C19.4783 -0.286473 22.0221 -0.286474 24.1287 0.85942L36.3415 7.50256C38.6171 8.74033 40.0336 11.1233 40.0336 13.7137V26.2863C40.0336 28.8767 38.6171 31.2597 36.3415 32.4974L24.1287 39.1406C22.0221 40.2865 19.4783 40.2865 17.3716 39.1406L5.15883 32.4974C2.8833 31.2597 1.4668 28.8767 1.4668 26.2863L1.4668 13.7137C1.4668 11.1233 2.8833 8.74033 5.15882 7.50256L17.3716 0.85942Z" fill="#2A5ADA"/>
<g clip-path="url(#clip0_10_812)">
<path d="M20.75 36C29.5866 36 36.75 28.8366 36.75 20C36.75 11.1634 29.5866 4 20.75 4C11.9134 4 4.75 11.1634 4.75 20C4.75 28.8366 11.9134 36 20.75 36Z" fill="#2A5ADA"/>
<path d="M20.25 10L18.451 11.055L13.55 13.945L11.75 15V25L13.549 26.055L18.496 28.945L20.295 30L22.094 28.945L26.951 26.055L28.75 25V15L26.951 13.945L22.049 11.055L20.25 10ZM15.348 22.89V17.11L20.25 14.22L25.152 17.11V22.89L20.25 25.78L15.348 22.89Z" fill="white"/>
</g>
<defs>
<clipPath id="clip0_10_812">
<rect width="32" height="32" fill="white" transform="translate(4.75 4)"/>
</clipPath>
</defs>
</svg>
