<svg width="40" height="40" viewBox="0 0 40 40" fill="none" xmlns="http://www.w3.org/2000/svg">
<path fill-rule="evenodd" clip-rule="evenodd" d="M16.6216 0.85942C18.7283 -0.286473 21.2721 -0.286474 23.3787 0.85942L35.5915 7.50256C37.8671 8.74033 39.2836 11.1233 39.2836 13.7137V26.2863C39.2836 28.8767 37.8671 31.2597 35.5915 32.4974L23.3787 39.1406C21.2721 40.2865 18.7283 40.2865 16.6216 39.1406L4.40883 32.4974C2.1333 31.2597 0.716797 28.8767 0.716797 26.2863L0.716797 13.7137C0.716797 11.1233 2.1333 8.74033 4.40882 7.50256L16.6216 0.85942Z" fill="#8DC351"/>
<g clip-path="url(#clip0_1_676)">
<path d="M20 36C28.8366 36 36 28.8366 36 20C36 11.1634 28.8366 4 20 4C11.1634 4 4 11.1634 4 20C4 28.8366 11.1634 36 20 36Z" fill="#8DC351"/>
<path d="M25.23 14.523C24.454 12.551 22.508 12.373 20.242 12.813L19.435 10L17.723 10.491L18.509 13.231C18.059 13.359 17.601 13.501 17.146 13.641L16.356 10.883L14.645 11.373L15.45 14.186C15.082 14.3 14.72 14.412 14.365 14.514L14.362 14.504L12 15.181L12.525 17.011C12.525 17.011 13.783 16.623 13.768 16.653C14.462 16.454 14.803 16.792 14.968 17.121L15.888 20.325C15.935 20.312 15.998 20.296 16.072 20.285L15.891 20.337L17.178 24.827C17.21 25.054 17.182 25.439 16.698 25.579C16.725 25.592 15.452 25.935 15.452 25.935L15.699 28.078L17.927 27.438C18.342 27.321 18.752 27.211 19.153 27.098L19.97 29.943L21.68 29.453L20.873 26.638C21.3317 26.5163 21.7891 26.3896 22.245 26.258L23.047 29.061L24.76 28.57L23.946 25.73C26.777 24.739 28.584 23.436 28.059 20.66C27.637 18.426 26.335 17.748 24.588 17.824C25.436 17.034 25.801 15.966 25.23 14.524V14.523ZM24.58 21.293C25.19 23.42 21.48 24.222 20.32 24.556L19.239 20.786C20.399 20.453 23.943 19.076 24.579 21.294L24.58 21.293ZM22.258 16.203C22.812 18.138 19.711 18.783 18.744 19.06L17.764 15.641C18.73 15.364 21.679 14.186 22.258 16.204V16.203Z" fill="white"/>
</g>
<defs>
<clipPath id="clip0_1_676">
<rect width="32" height="32" fill="white" transform="translate(4 4)"/>
</clipPath>
</defs>
</svg>
