<svg width="24" height="25" viewBox="0 0 24 25" fill="none" xmlns="http://www.w3.org/2000/svg">
<path d="M12 5.27778L18.75 10.2778V20.2778H5.25V10.2778L12 5.27778ZM12 2.5L3 9.16667V22.5H21V9.16667L12 2.5ZM11.4375 9.72222V13.0556H10.875V9.72222H9.75V13.0556H9.1875V9.72222H8.0625V13.0556C8.0625 13.9778 8.81625 14.7222 9.75 14.7222V19.1667H10.875V14.7222C11.8088 14.7222 12.5625 13.9778 12.5625 13.0556V9.72222H11.4375ZM13.125 11.9444V15.2778H14.25V19.1667H15.375V9.72222C14.1375 9.72222 13.125 10.7222 13.125 11.9444Z" fill="#666666"/>
</svg>
