<svg width="34" height="16" viewBox="0 0 34 16" fill="none" xmlns="http://www.w3.org/2000/svg">
<g clip-path="url(#clip0_83_1467)">
<path d="M28.0344 6.85778H19.0136C18.1933 6.85778 17.4067 6.70317 16.8266 6.42795C16.2466 6.15273 15.9208 5.77946 15.9208 5.39025V1.10995C15.9208 1.07752 15.8936 1.04641 15.8453 1.02347C15.7969 1.00054 15.7314 0.987656 15.663 0.987656H9.7351C8.64141 0.987656 7.59251 1.19381 6.81915 1.56076C6.0458 1.92772 5.61133 2.42541 5.61133 2.94436V12.7279C5.61133 13.2469 6.0458 13.7446 6.81915 14.1115C7.59251 14.4785 8.64141 14.6846 9.7351 14.6846H24.1683C25.262 14.6846 26.3109 14.4785 27.0843 14.1115C27.8576 13.7446 28.2921 13.2469 28.2921 12.7279V6.98007C28.2921 6.94764 28.2649 6.91653 28.2166 6.8936C28.1683 6.87066 28.1027 6.85778 28.0344 6.85778ZM22.1064 11.7495H11.797C11.5236 11.7495 11.2613 11.698 11.068 11.6063C10.8747 11.5145 10.766 11.3901 10.766 11.2604C10.766 11.1306 10.8747 11.0062 11.068 10.9145C11.2613 10.8227 11.5236 10.7712 11.797 10.7712H22.1064C22.3799 10.7712 22.6421 10.8227 22.8354 10.9145C23.0288 11.0062 23.1374 11.1306 23.1374 11.2604C23.1374 11.3901 23.0288 11.5145 22.8354 11.6063C22.6421 11.698 22.3799 11.7495 22.1064 11.7495ZM22.1064 9.30366H11.797C11.5236 9.30366 11.2613 9.25213 11.068 9.16039C10.8747 9.06865 10.766 8.94423 10.766 8.81449C10.766 8.68475 10.8747 8.56033 11.068 8.46859C11.2613 8.37685 11.5236 8.32531 11.797 8.32531H22.1064C22.3799 8.32531 22.6421 8.37685 22.8354 8.46859C23.0288 8.56033 23.1374 8.68475 23.1374 8.81449C23.1374 8.94423 23.0288 9.06865 22.8354 9.16039C22.6421 9.25213 22.3799 9.30366 22.1064 9.30366Z" fill="#2D3748"/>
<path d="M27.4684 5.77594L18.2021 1.37916C18.1841 1.37066 18.1612 1.36487 18.1363 1.36253C18.1114 1.3602 18.0855 1.36141 18.062 1.36601C18.0386 1.37062 18.0185 1.37842 18.0043 1.38843C17.9901 1.39844 17.9825 1.41021 17.9824 1.42226V5.39102C17.9824 5.52076 18.091 5.64518 18.2844 5.73692C18.4777 5.82866 18.7399 5.8802 19.0134 5.8802H27.3775C27.403 5.88015 27.4278 5.87653 27.4489 5.86981C27.4699 5.86309 27.4864 5.85356 27.4961 5.84241C27.5058 5.83127 27.5084 5.81902 27.5034 5.80719C27.4985 5.79536 27.4863 5.78449 27.4684 5.77594V5.77594Z" fill="#2D3748"/>
</g>
<defs>
<clipPath id="clip0_83_1467">
<rect width="32.9902" height="15.6537" fill="white" transform="translate(0.457031 0.00914001)"/>
</clipPath>
</defs>
</svg>
