<svg width="698" height="203" viewBox="0 0 698 203" fill="none" xmlns="http://www.w3.org/2000/svg">
<path d="M601.816 137.815C637.946 127.324 680.278 142.187 696.928 150.929V202.06H0.968445V2.00763C35.9329 8.00896 58.41 57.3532 64.0293 88.6935C68.6124 114.255 68.8162 132.481 93.1664 137.815C117.647 143.178 146.672 126.113 171.23 102.997C190.877 84.5038 220.208 95.2913 232.418 102.997C254.062 116.407 289.717 125.502 318.354 111.81C354.151 94.6948 373.923 99.5847 419.085 111.81C464.248 124.035 459.669 131.814 497.339 150.929C535.009 170.045 556.654 150.929 601.816 137.815Z" fill="url(#paint0_linear_80_972)"/>
<path d="M696.928 150.929C680.278 142.187 637.946 127.324 601.816 137.815C556.654 150.929 535.009 170.045 497.339 150.929C459.669 131.814 464.248 124.035 419.085 111.81C373.923 99.5848 354.151 94.6948 318.354 111.81C289.717 125.502 254.062 116.407 232.418 102.997C220.208 95.2913 190.877 84.5038 171.23 102.997C146.672 126.113 117.647 143.178 93.1664 137.815C68.8161 132.481 68.6124 114.255 64.0293 88.6935C58.41 57.3532 35.9329 8.00896 0.968431 2.00763" stroke="#2D3748" stroke-width="3"/>
<path d="M95.3492 116.117C59.497 105.634 17.4905 120.485 0.96875 129.221V201.86H696.099V29.9689C661.404 35.9658 631.93 34.4106 626.354 65.7279C621.806 91.2704 621.604 109.483 597.441 114.814C573.149 120.173 559.028 88.8272 534.658 65.7279C515.163 47.2486 482.329 71.2951 470.213 78.9949C448.735 92.3954 399.908 63.1574 378.748 40.1742C348.534 7.35682 308.8 4.35523 278.792 40.1742C248.783 75.9932 219.017 46.6266 181.637 65.7279C144.257 84.8292 140.164 129.222 95.3492 116.117Z" fill="url(#paint1_linear_80_972)"/>
<path d="M0.96875 129.368C17.4905 120.621 59.497 105.75 95.3492 116.247C140.164 129.368 144.257 84.9194 181.637 65.7936C219.017 46.6679 248.783 76.0721 278.792 40.2072C308.8 4.34233 348.534 7.34777 378.748 40.2072C399.908 63.2198 448.735 92.4952 470.213 79.0775C482.329 71.3679 515.163 47.2906 534.658 65.7936C559.028 88.9224 573.149 120.308 597.441 114.942C621.604 109.605 621.806 91.3688 626.354 65.7936C631.93 34.4362 661.404 35.9934 696.099 29.9888" stroke="#4FD1C5" stroke-width="3"/>
<defs>
<linearGradient id="paint0_linear_80_972" x1="348.948" y1="2.00763" x2="348.948" y2="202.06" gradientUnits="userSpaceOnUse">
<stop stop-color="#2D3748" stop-opacity="0.36"/>
<stop offset="1" stop-color="#2D3748" stop-opacity="0"/>
</linearGradient>
<linearGradient id="paint1_linear_80_972" x1="348.534" y1="14.4233" x2="348.534" y2="201.86" gradientUnits="userSpaceOnUse">
<stop stop-color="#4FD1C5" stop-opacity="0.54"/>
<stop offset="1" stop-color="#4FD1C5" stop-opacity="0"/>
</linearGradient>
</defs>
</svg>
