<svg width="35" height="5" viewBox="0 0 35 5" fill="none" xmlns="http://www.w3.org/2000/svg">
<path fill-rule="evenodd" clip-rule="evenodd" d="M6.24995 4.3898C7.21645 4.3898 7.99995 3.6063 7.99995 2.6398C7.99995 1.6733 7.21645 0.889801 6.24995 0.889801C5.28345 0.889801 4.49995 1.6733 4.49995 2.6398C4.49995 3.6063 5.28345 4.3898 6.24995 4.3898ZM1.75 4.38981C2.7165 4.38981 3.5 3.60631 3.5 2.63981C3.5 1.67331 2.7165 0.889808 1.75 0.889808C0.783502 0.889808 0 1.67331 0 2.63981C0 3.60631 0.783502 4.38981 1.75 4.38981ZM12.5001 2.6398C12.5001 3.6063 11.7166 4.3898 10.7501 4.3898C9.7836 4.3898 9.0001 3.6063 9.0001 2.6398C9.0001 1.6733 9.7836 0.889801 10.7501 0.889801C11.7166 0.889801 12.5001 1.6733 12.5001 2.6398ZM15.25 4.3898C16.2165 4.3898 17 3.6063 17 2.6398C17 1.6733 16.2165 0.889801 15.25 0.889801C14.2835 0.889801 13.5 1.6733 13.5 2.6398C13.5 3.6063 14.2835 4.3898 15.25 4.3898ZM21.4999 2.6398C21.4999 3.6063 20.7164 4.3898 19.7499 4.3898C18.7834 4.3898 17.9999 3.6063 17.9999 2.6398C17.9999 1.6733 18.7834 0.889801 19.7499 0.889801C20.7164 0.889801 21.4999 1.6733 21.4999 2.6398ZM24.25 4.3898C25.2165 4.3898 26 3.6063 26 2.6398C26 1.6733 25.2165 0.889801 24.25 0.889801C23.2836 0.889801 22.5 1.6733 22.5 2.6398C22.5 3.6063 23.2836 4.3898 24.25 4.3898ZM30.5 2.6398C30.5 3.6063 29.7164 4.3898 28.75 4.3898C27.7835 4.3898 27 3.6063 27 2.6398C27 1.6733 27.7835 0.889801 28.75 0.889801C29.7164 0.889801 30.5 1.6733 30.5 2.6398ZM33.2501 4.3898C34.2166 4.3898 35.0001 3.6063 35.0001 2.6398C35.0001 1.6733 34.2166 0.889801 33.2501 0.889801C32.2836 0.889801 31.5001 1.6733 31.5001 2.6398C31.5001 3.6063 32.2836 4.3898 33.2501 4.3898Z" fill="black"/>
</svg>
