<svg width="36" height="5" viewBox="0 0 36 5" fill="none" xmlns="http://www.w3.org/2000/svg">
<path fill-rule="evenodd" clip-rule="evenodd" d="M6.75008 4.3898C7.71658 4.3898 8.50008 3.6063 8.50008 2.6398C8.50008 1.6733 7.71658 0.889801 6.75008 0.889801C5.78358 0.889801 5.00008 1.6733 5.00008 2.6398C5.00008 3.6063 5.78358 4.3898 6.75008 4.3898ZM2.25 4.38981C3.2165 4.38981 4 3.60631 4 2.63981C4 1.67331 3.2165 0.889808 2.25 0.889808C1.2835 0.889808 0.5 1.67331 0.5 2.63981C0.5 3.60631 1.2835 4.38981 2.25 4.38981ZM13 2.6398C13 3.6063 12.2165 4.3898 11.25 4.3898C10.2835 4.3898 9.49998 3.6063 9.49998 2.6398C9.49998 1.6733 10.2835 0.889801 11.25 0.889801C12.2165 0.889801 13 1.6733 13 2.6398ZM15.7499 4.3898C16.7164 4.3898 17.4999 3.6063 17.4999 2.6398C17.4999 1.6733 16.7164 0.889801 15.7499 0.889801C14.7834 0.889801 13.9999 1.6733 13.9999 2.6398C13.9999 3.6063 14.7834 4.3898 15.7499 4.3898ZM22 2.6398C22 3.6063 21.2165 4.3898 20.25 4.3898C19.2835 4.3898 18.5 3.6063 18.5 2.6398C18.5 1.6733 19.2835 0.889801 20.25 0.889801C21.2165 0.889801 22 1.6733 22 2.6398ZM24.7499 4.3898C25.7164 4.3898 26.4999 3.6063 26.4999 2.6398C26.4999 1.6733 25.7164 0.889801 24.7499 0.889801C23.7834 0.889801 22.9999 1.6733 22.9999 2.6398C22.9999 3.6063 23.7834 4.3898 24.7499 4.3898ZM31.0001 2.6398C31.0001 3.6063 30.2166 4.3898 29.2501 4.3898C28.2836 4.3898 27.5001 3.6063 27.5001 2.6398C27.5001 1.6733 28.2836 0.889801 29.2501 0.889801C30.2166 0.889801 31.0001 1.6733 31.0001 2.6398ZM33.75 4.3898C34.7165 4.3898 35.5 3.6063 35.5 2.6398C35.5 1.6733 34.7165 0.889801 33.75 0.889801C32.7835 0.889801 32 1.6733 32 2.6398C32 3.6063 32.7835 4.3898 33.75 4.3898Z" fill="black"/>
</svg>
