<svg width="24" height="25" viewBox="0 0 24 25" fill="none" xmlns="http://www.w3.org/2000/svg">
<path d="M10 22.5V16.15L11.625 11.5H20.375L22 16.15V22.5H20V21H12V22.5H10ZM12 15H20L19.3 13H12.7L12 15ZM13 19C13.2833 19 13.521 18.904 13.713 18.712C13.9043 18.5207 14 18.2833 14 18C14 17.7167 13.9043 17.4793 13.713 17.288C13.521 17.096 13.2833 17 13 17C12.7167 17 12.4793 17.096 12.288 17.288C12.096 17.4793 12 17.7167 12 18C12 18.2833 12.096 18.5207 12.288 18.712C12.4793 18.904 12.7167 19 13 19ZM19 19C19.2833 19 19.5207 18.904 19.712 18.712C19.904 18.5207 20 18.2833 20 18C20 17.7167 19.904 17.4793 19.712 17.288C19.5207 17.096 19.2833 17 19 17C18.7167 17 18.4793 17.096 18.288 17.288C18.096 17.4793 18 17.7167 18 18C18 18.2833 18.096 18.5207 18.288 18.712C18.4793 18.904 18.7167 19 19 19ZM6 14.5V12.5H8V14.5H6ZM11 8.5V6.5H13V8.5H11ZM6 18.5V16.5H8V18.5H6ZM6 22.5V20.5H8V22.5H6ZM2 22.5V8.5H7V2.5H17V9.5H15V4.5H9V10.5H4V22.5H2ZM11.5 19.5H20.5V16.5H11.5V19.5Z" fill="#666666"/>
</svg>
