<svg width="25" height="10" viewBox="0 0 25 10" fill="none" xmlns="http://www.w3.org/2000/svg">
<path fill-rule="evenodd" clip-rule="evenodd" d="M12.6708 3.35593C12.6568 4.54299 13.653 5.20542 14.4034 5.59928C15.1744 6.00343 15.4333 6.26257 15.4304 6.62391C15.4245 7.17703 14.8153 7.42106 14.2452 7.43056C13.2505 7.44719 12.6723 7.14134 12.2125 6.90997L11.8542 8.71585C12.3155 8.94491 13.1696 9.14461 14.0554 9.15332C16.1345 9.15332 17.4947 8.04787 17.5021 6.33389C17.5102 4.15869 14.7087 4.03823 14.7278 3.06592C14.7344 2.77115 14.9956 2.45652 15.568 2.3765C15.8512 2.33612 16.6332 2.30518 17.5198 2.74496L17.8677 0.997727C17.391 0.810694 16.7782 0.631577 16.0153 0.631577C14.0583 0.631577 12.6819 1.75206 12.6708 3.35593ZM21.2115 0.782128C20.8319 0.782128 20.5118 1.02069 20.3691 1.38677L17.3991 9.02493H19.4767L19.8901 7.79427H22.429L22.6689 9.02493H24.5L22.9021 0.782128H21.2115ZM21.5021 3.00885L22.1016 6.10404H20.4596L21.5021 3.00885ZM10.1518 0.782128L8.51418 9.02493H10.4939L12.1308 0.782128H10.1518ZM7.22303 0.782128L5.16233 6.39248L4.32878 1.6221C4.23097 1.08963 3.84472 0.782128 3.41579 0.782128H0.0471011L0 1.02148C0.691574 1.18311 1.47729 1.44384 1.95326 1.72277C2.24457 1.89311 2.32775 2.04208 2.42336 2.44702L4.00214 9.02493H6.0945L9.3021 0.782128H7.22303Z" fill="#4318FF"/>
</svg>
